ffmpeg version 4.2.4-1ubuntu0.1 Copyright (c) 2000-2020 the FFmpeg developers
  built with gcc 9 (Ubuntu 9.3.0-10ubuntu2)
  configuration: --prefix=/usr --extra-version=1ubuntu0.1 --toolchain=hardened --libdir=/usr/lib/x86_64-linux-gnu --incdir=/usr/include/x86_64-linux-gnu --arch=amd64 --enable-gpl --disable-stripping --enable-avresample --disable-filter=resample --enable-avisynth --enable-gnutls --enable-ladspa --enable-libaom --enable-libass --enable-libbluray --enable-libbs2b --enable-libcaca --enable-libcdio --enable-libcodec2 --enable-libflite --enable-libfontconfig --enable-libfreetype --enable-libfribidi --enable-libgme --enable-libgsm --enable-libjack --enable-libmp3lame --enable-libmysofa --enable-libopenjpeg --enable-libopenmpt --enable-libopus --enable-libpulse --enable-librsvg --enable-librubberband --enable-libshine --enable-libsnappy --enable-libsoxr --enable-libspeex --enable-libssh --enable-libtheora --enable-libtwolame --enable-libvidstab --enable-libvorbis --enable-libvpx --enable-libwavpack --enable-libwebp --enable-libx265 --enable-libxml2 --enable-libxvid --enable-libzmq --enable-libzvbi --enable-lv2 --enable-omx --enable-openal --enable-opencl --enable-opengl --enable-sdl2 --enable-libdc1394 --enable-libdrm --enable-libiec61883 --enable-nvenc --enable-chromaprint --enable-frei0r --enable-libx264 --enable-shared
  libavutil      56. 31.100 / 56. 31.100
  libavcodec     58. 54.100 / 58. 54.100
  libavformat    58. 29.100 / 58. 29.100
  libavdevice    58.  8.100 / 58.  8.100
  libavfilter     7. 57.100 /  7. 57.100
  libavresample   4.  0.  0 /  4.  0.  0
  libswscale      5.  5.100 /  5.  5.100
  libswresample   3.  5.100 /  3.  5.100
  libpostproc    55.  5.100 / 55.  5.100
Input #0, image2, from './Cubo/Cubo%02d.png':
  Duration: 00:00:04.00, start: 0.000000, bitrate: N/A
    Stream #0:0: Video: png, rgb24(pc), 320x240, 25 fps, 25 tbr, 25 tbn, 25 tbc
Stream mapping:
  Stream #0:0 -> #0:0 (png (native) -> h264 (libx264))
Press [q] to stop, [?] for help
[libx264 @ 0x555a8741ea80] using cpu capabilities: MMX2 SSE2Fast SSSE3 SSE4.2 AVX FMA3 BMI2 AVX2
[libx264 @ 0x555a8741ea80] profile High 4:4:4 Predictive, level 1.2, 4:4:4 8-bit
Output #0, avi, to 'exercici6/cubo_h264_g100_ref0_r15.avi':
  Metadata:
    ISFT            : Lavf58.29.100
    Stream #0:0: Video: h264 (libx264) (H264 / 0x34363248), yuv444p, 320x240, q=-1--1, 15 fps, 15 tbn, 15 tbc
    Metadata:
      encoder         : Lavc58.54.100 libx264
    Side data:
      cpb: bitrate max/min/avg: 0/0/0 buffer size: 0 vbv_delay: -1
frame=   62 fps=0.0 q=-1.0 Lsize=     328kB time=00:00:04.00 bitrate= 670.8kbits/s dup=0 drop=38 speed=25.1x    
video:320kB audio:0kB subtitle:0kB other streams:0kB global headers:0kB muxing overhead: 2.195786%
bench: utime=0.554s stime=0.009s rtime=0.160s
bench: maxrss=91236kB
[libx264 @ 0x555a8741ea80] frame I:12    Avg QP:23.70  size:  7270
[libx264 @ 0x555a8741ea80] frame P:25    Avg QP:26.77  size:  5171
[libx264 @ 0x555a8741ea80] frame B:25    Avg QP:27.63  size:  4466
[libx264 @ 0x555a8741ea80] consecutive B-frames: 43.5%  3.2% 14.5% 38.7%
[libx264 @ 0x555a8741ea80] mb I  I16..4: 20.2%  0.0% 79.8%
[libx264 @ 0x555a8741ea80] mb P  I16..4: 12.1%  0.0% 56.6%  P16..4: 11.2% 11.8%  5.4%  0.0%  0.0%    skip: 2.9%
[libx264 @ 0x555a8741ea80] mb B  I16..4:  3.8%  0.0% 35.8%  B16..8: 22.2% 19.1%  6.4%  direct: 4.2%  skip: 8.4%  L0:36.8% L1:48.4% BI:14.8%
[libx264 @ 0x555a8741ea80] coded y,u,v intra: 75.2% 63.1% 66.5% inter: 38.5% 15.3% 19.1%
[libx264 @ 0x555a8741ea80] i16 v,h,dc,p: 18% 34% 18% 30%
[libx264 @ 0x555a8741ea80] i4 v,h,dc,ddl,ddr,vr,hd,vl,hu: 25% 13% 18%  8%  6%  8%  5% 12%  5%
[libx264 @ 0x555a8741ea80] Weighted P-Frames: Y:8.0% UV:8.0%
[libx264 @ 0x555a8741ea80] kb/s:635.18
